<svg width="24" height="24" viewBox="0 0 24 24" fill="none" xmlns="http://www.w3.org/2000/svg">
<mask id="mask0_1985_3848" style="mask-type:alpha" maskUnits="userSpaceOnUse" x="0" y="0" width="24" height="24">
<rect width="24" height="24" fill="#D9D9D9"/>
</mask>
<g mask="url(#mask0_1985_3848)">
<path d="M20.6922 19.1C20.6102 19.2282 20.4741 19.3009 20.2837 19.3182C20.0932 19.3356 19.9223 19.2686 19.771 19.1172L17.7692 17.1152H8C7.5135 17.1152 7.097 16.942 6.7505 16.5955C6.404 16.2492 6.23075 15.8327 6.23075 15.346V14.7307H17.1155C17.6125 14.7307 18.038 14.5537 18.392 14.1997C18.746 13.8457 18.923 13.4202 18.923 12.923V6H19.5385C20.025 6 20.4415 6.17325 20.788 6.51975C21.1345 6.86625 21.3077 7.28275 21.3077 7.76925V18.4692C21.3077 18.6537 21.2462 18.805 21.123 18.923C21 19.041 20.8564 19.1 20.6922 19.1ZM3.593 15.0037C3.3605 15.0037 3.15225 14.9192 2.96825 14.75C2.78425 14.5807 2.69225 14.3574 2.69225 14.0802V4.30775C2.69225 3.81058 2.86925 3.385 3.22325 3.031C3.57725 2.677 4.00283 2.5 4.5 2.5H15.1155C15.6125 2.5 16.038 2.677 16.392 3.031C16.746 3.385 16.923 3.81058 16.923 4.30775V10.923C16.923 11.4202 16.746 11.8457 16.392 12.1997C16.038 12.5537 15.6125 12.7308 15.1155 12.7308H6.23075L4.229 14.7327C4.13533 14.8262 4.035 14.8948 3.928 14.9385C3.82083 14.982 3.70916 15.0037 3.593 15.0037Z" fill="#FFC000"/>
</g>
</svg>
