<svg width="18" height="16" viewBox="0 0 18 16" fill="none" xmlns="http://www.w3.org/2000/svg">
<path d="M11.3973 5.18607C11.7359 5.52482 11.9977 5.93642 12.1825 6.42086C12.3674 6.90544 12.4373 7.39183 12.3923 7.88003C12.3923 8.0403 12.3347 8.176 12.2194 8.28711C12.104 8.39822 11.9661 8.45378 11.8059 8.45378C11.6456 8.45378 11.5099 8.39822 11.3988 8.28711C11.2877 8.176 11.2321 8.0403 11.2321 7.88003C11.2856 7.51364 11.2554 7.16642 11.1417 6.83836C11.0279 6.51044 10.853 6.22843 10.6169 5.99232C10.3808 5.75621 10.0961 5.57697 9.76273 5.45461C9.4294 5.33225 9.07787 5.30044 8.70815 5.35919C8.54787 5.36461 8.40954 5.31093 8.29315 5.19815C8.17662 5.08551 8.11572 4.94905 8.11044 4.78878C8.10503 4.6285 8.15655 4.4901 8.26503 4.37357C8.3735 4.25718 8.50787 4.19634 8.66815 4.19107C9.15315 4.13551 9.64058 4.19878 10.1304 4.38086C10.6203 4.56308 11.0426 4.83148 11.3973 5.18607ZM8.99982 3.00023C8.70384 3.00023 8.4135 3.01468 8.12878 3.04357C7.84405 3.07232 7.56065 3.11982 7.27857 3.18607C7.10121 3.22246 6.94148 3.19711 6.7994 3.11003C6.65732 3.02294 6.55961 2.89766 6.50628 2.73419C6.4528 2.56544 6.47044 2.40496 6.55919 2.25273C6.6478 2.10051 6.77648 2.00621 6.94523 1.96982C7.28079 1.88968 7.61975 1.83308 7.96211 1.80003C8.30461 1.76683 8.65051 1.75023 8.99982 1.75023C10.7904 1.75023 12.4352 2.21551 13.9342 3.14607C15.4331 4.07662 16.5858 5.33572 17.3923 6.92336C17.4479 7.02905 17.4882 7.13558 17.5134 7.24294C17.5385 7.3503 17.5511 7.46385 17.5511 7.58357C17.5511 7.70329 17.5407 7.81683 17.5198 7.92419C17.499 8.03155 17.4608 8.13808 17.4052 8.24378C17.15 8.77794 16.8396 9.27607 16.4742 9.73815C16.1088 10.2002 15.7065 10.6247 15.2673 11.0115C15.1382 11.1269 14.9905 11.1747 14.8244 11.1548C14.6582 11.1351 14.5216 11.052 14.4148 10.9057C14.308 10.7593 14.2637 10.6022 14.2819 10.4346C14.3001 10.2668 14.3738 10.1252 14.5029 10.0098C14.8791 9.66899 15.222 9.29642 15.5319 8.89211C15.8418 8.48767 16.1088 8.05148 16.3332 7.58357C15.6387 6.18079 14.6352 5.06621 13.3227 4.23982C12.0102 3.41343 10.5693 3.00023 8.99982 3.00023ZM8.99982 13.4169C7.24551 13.4169 5.6376 12.9482 4.17607 12.0107C2.71454 11.0732 1.55273 9.83836 0.690651 8.30628C0.621207 8.20058 0.570443 8.08572 0.538359 7.96169C0.506276 7.8378 0.490234 7.71176 0.490234 7.58357C0.490234 7.45537 0.504123 7.33142 0.531901 7.21169C0.559679 7.09211 0.60829 6.97517 0.677734 6.86086C0.987595 6.29461 1.33857 5.7553 1.73065 5.24294C2.12273 4.73072 2.57357 4.27162 3.08315 3.86565L1.20169 1.97128C1.08641 1.84739 1.02954 1.70023 1.03107 1.52982C1.03273 1.3594 1.09391 1.21385 1.21461 1.09315C1.3353 0.972457 1.48169 0.912109 1.65378 0.912109C1.82572 0.912109 1.97204 0.972457 2.09273 1.09315L15.9069 14.9073C16.0223 15.0227 16.0835 15.1656 16.0904 15.3359C16.0974 15.5063 16.0362 15.6561 15.9069 15.7854C15.7862 15.9061 15.6398 15.9665 15.4677 15.9665C15.2958 15.9665 15.1495 15.9061 15.0288 15.7854L12.0961 12.8784C11.6045 13.0685 11.0994 13.2058 10.5807 13.2902C10.062 13.3747 9.53509 13.4169 8.99982 13.4169ZM3.96148 4.74378C3.47315 5.121 3.03426 5.54753 2.64482 6.02336C2.25537 6.49933 1.92926 7.0194 1.66648 7.58357C2.36093 8.98635 3.3644 10.1009 4.6769 10.9273C5.9894 11.7537 7.43037 12.1669 8.99982 12.1669C9.35773 12.1669 9.71002 12.1429 10.0567 12.0948C10.4034 12.0468 10.7477 11.9725 11.0896 11.8721L10.035 10.7919C9.86627 10.8657 9.69773 10.9156 9.5294 10.9417C9.36121 10.9679 9.18468 10.9811 8.99982 10.9811C8.05426 10.9811 7.25162 10.6512 6.5919 9.99148C5.93218 9.33176 5.60232 8.52912 5.60232 7.58357C5.60232 7.39871 5.61676 7.22218 5.64565 7.05399C5.67454 6.88565 5.72315 6.71711 5.79148 6.54836L3.96148 4.74378Z" fill="#595959"/>
</svg>
