<svg width="18" height="13" viewBox="0 0 18 13" fill="none" xmlns="http://www.w3.org/2000/svg">
<path d="M1.05 6.77345C0.983333 6.59703 0.983333 6.40297 1.05 6.22655C1.69933 4.68001 2.80153 3.35768 4.21686 2.4272C5.63219 1.49673 7.29692 1 9 1C10.7031 1 12.3678 1.49673 13.7831 2.4272C15.1985 3.35768 16.3007 4.68001 16.95 6.22655C17.0167 6.40297 17.0167 6.59703 16.95 6.77345C16.3007 8.31999 15.1985 9.64232 13.7831 10.5728C12.3678 11.5033 10.7031 12 9 12C7.29692 12 5.63219 11.5033 4.21686 10.5728C2.80153 9.64232 1.69933 8.31999 1.05 6.77345Z" stroke="#595959" stroke-width="1.5" stroke-linecap="round" stroke-linejoin="round"/>
<path d="M9 8.85735C10.3254 8.85735 11.3999 7.80193 11.3999 6.5C11.3999 5.19807 10.3254 4.14265 9 4.14265C7.67458 4.14265 6.60012 5.19807 6.60012 6.5C6.60012 7.80193 7.67458 8.85735 9 8.85735Z" stroke="#595959" stroke-width="1.5" stroke-linecap="round" stroke-linejoin="round"/>
</svg>
