<svg width="1394" height="475" viewBox="0 0 1394 475" fill="none" xmlns="http://www.w3.org/2000/svg">
<path d="M393.341 1.35077C366.274 5.35077 347.341 20.6841 347.341 38.9507C347.341 41.0841 348.808 47.0841 350.541 52.2841C359.074 77.7508 361.474 99.0841 360.008 136.551L359.074 160.951L346.141 161.751C309.474 163.884 299.074 165.217 292.008 168.417C264.141 181.084 257.341 224.151 279.474 246.417C289.208 256.151 294.541 257.217 332.274 257.217H365.074L363.874 324.951C362.141 423.484 362.141 428.017 365.741 439.351C372.941 462.684 388.274 474.551 411.474 474.551C435.341 474.551 451.208 460.417 458.674 432.551C462.141 419.484 463.341 393.217 464.274 306.417L465.074 224.417L445.874 210.417C420.141 191.617 414.141 182.684 415.741 165.084C416.541 155.351 420.408 146.817 426.941 140.284C433.874 133.351 440.674 130.417 452.941 128.684L463.208 127.351L462.541 114.551C460.541 77.4841 459.074 60.8174 456.674 50.6841C447.874 14.0174 425.608 -3.31592 393.341 1.35077Z" fill="black"/>
<path d="M840.674 2.284C823.608 8.01733 813.608 16.0173 807.474 29.084C804.274 35.884 804.008 38.0173 804.141 51.884C804.141 65.084 804.941 70.5507 809.741 90.5507C812.674 103.351 815.608 116.951 816.141 120.684L816.941 127.484L833.208 128.151C852.274 128.951 859.874 131.484 868.408 140.284C880.008 152.151 883.341 170.817 876.408 184.551C871.608 193.884 869.341 196.017 845.874 213.084L825.074 228.151L824.141 257.751C823.608 273.884 822.008 310.017 820.541 337.884C817.474 399.217 817.341 424.151 820.008 435.617C824.008 452.417 832.674 464.017 846.008 470.417C852.408 473.484 855.074 473.884 866.674 473.884C878.541 473.884 880.808 473.484 887.608 470.151C900.941 463.617 910.541 449.351 914.674 429.751C918.408 412.151 919.874 358.417 919.874 233.217C920.008 104.817 919.074 76.684 914.008 52.1507C909.208 28.284 898.008 11.884 881.608 4.41733C870.674 -0.515991 852.008 -1.44931 840.674 2.284Z" fill="black"/>
<path d="M642.674 5.08417C630.275 8.15082 628.408 11.4842 613.608 57.3508C602.408 91.4842 599.875 98.0175 594.275 106.684C586.541 118.284 580.408 124.284 568.941 131.617C551.741 142.684 550.008 142.951 496.674 143.884C467.208 144.418 448.141 145.217 446.008 146.151C440.541 148.417 434.141 156.017 432.541 161.751C430.941 167.751 431.875 174.817 435.075 180.284C436.408 182.417 452.008 194.817 470.275 208.017C506.408 234.284 515.341 242.817 522.675 257.484C529.341 271.084 531.341 279.751 531.341 295.351C531.341 310.551 531.475 310.284 514.808 361.884C505.075 392.151 504.541 394.284 505.875 399.618C509.741 413.751 524.541 421.751 536.808 416.151C540.008 414.684 556.541 403.484 573.341 391.218C614.008 361.618 623.608 357.218 648.408 357.218C661.875 357.218 672.675 359.618 684.008 365.218C688.408 367.351 706.408 379.618 724.008 392.418C744.141 407.084 758.008 416.284 761.475 417.218C775.475 421.218 790.008 409.884 790.008 394.951C790.008 392.284 784.541 373.218 777.875 352.684C764.141 310.018 762.008 299.618 764.408 284.684C767.341 265.484 774.408 250.684 786.674 238.017C790.408 234.284 807.208 221.217 824.008 208.951C862.275 181.351 863.608 179.884 863.608 167.884C863.608 161.217 862.008 157.084 857.475 152.151C850.808 144.684 850.408 144.551 799.341 143.751C766.674 143.217 750.408 142.551 746.674 141.351C727.341 135.217 706.808 118.017 697.741 100.551C695.075 95.3508 687.741 74.9508 681.341 55.2175C674.941 35.3508 668.408 17.0842 666.675 14.4175C662.008 7.2175 651.208 3.08417 642.674 5.08417ZM651.741 160.417C662.541 189.217 691.341 216.951 719.075 225.217C722.141 226.151 724.674 227.351 724.674 227.884C724.674 228.417 722.141 229.484 719.075 230.417C710.408 232.951 694.408 242.017 685.075 249.484C670.408 261.484 658.008 278.417 651.608 295.484C649.608 300.817 647.608 305.217 647.208 305.217C646.808 305.217 645.741 302.684 644.808 299.484C642.008 290.417 633.341 274.551 625.875 265.484C613.608 250.284 592.275 235.351 575.741 230.417C572.541 229.484 570.008 228.417 570.008 227.884C570.008 227.351 572.541 226.284 575.741 225.351C584.808 222.551 600.674 213.884 609.741 206.417C624.941 194.151 639.875 172.817 644.808 156.151C645.741 153.084 646.808 150.551 647.208 150.551C647.608 150.551 649.608 154.951 651.741 160.417Z" fill="black"/>
<path d="M1044.01 19.884C980.008 21.6173 960.275 23.084 950.808 26.684C941.341 30.1507 929.208 41.2173 930.675 44.9507C932.008 48.4173 935.208 73.6174 936.141 87.884C936.941 100.551 936.941 100.551 941.475 103.617C951.608 110.284 959.475 111.084 996.675 109.351C1015.34 108.551 1039.07 107.484 1049.21 106.951L1067.74 106.151L1064.67 111.351C1045.74 142.417 1014.67 169.884 982.408 183.884C958.008 194.417 949.608 198.817 943.875 204.151L938.008 209.617V248.017V286.551L945.075 290.151C951.075 293.351 953.475 293.884 963.341 293.751C976.941 293.617 985.208 290.817 999.608 281.351C1006.94 276.551 1017.61 266.284 1042.14 240.417C1116.54 162.151 1143.74 139.484 1195.87 112.684C1211.61 104.551 1220.94 102.417 1239.21 102.417C1253.87 102.551 1264.14 105.217 1276.67 112.551C1296.41 124.017 1318.14 127.217 1332.01 120.684C1348.54 113.084 1357.47 93.084 1356.41 66.5507C1355.74 50.4174 1352.27 42.1507 1342.94 33.884C1333.74 25.484 1324.41 22.9507 1296.01 21.2173C1266.14 19.3507 1098.14 18.4173 1044.01 19.884Z" fill="black"/>
<path d="M62.541 27.8842C32.4077 29.4842 20.6744 33.2176 10.4077 44.2842C-0.658959 56.1509 0.00770802 46.2842 0.00770802 214.551C0.00770802 335.484 0.407708 364.684 1.87437 371.218C8.00771 398.151 23.0744 407.351 69.341 412.151C103.474 415.618 209.608 413.884 259.208 409.084C284.008 406.684 299.074 399.218 305.874 385.884C308.941 380.018 309.341 377.618 309.341 365.218C309.341 352.018 309.074 350.684 304.941 342.151C299.741 331.618 292.008 324.951 280.808 321.618C271.608 318.818 259.741 318.684 206.008 320.951C158.141 322.951 108.141 321.618 102.808 318.151C100.008 316.284 99.741 314.951 98.941 298.951C98.4077 289.618 98.0077 276.018 98.0077 268.818V255.751L162.408 256.151C221.608 256.551 227.208 256.418 232.674 254.151C246.274 248.684 252.408 236.818 253.608 213.084C254.408 198.018 252.141 188.418 245.741 180.684C236.674 169.618 225.341 167.618 190.808 171.084C169.074 173.218 127.874 173.884 109.341 172.284L98.941 171.484L99.6077 143.218C99.8744 127.751 100.674 114.284 101.208 113.351C102.141 111.884 116.274 111.618 173.874 112.018L245.341 112.418L253.074 109.351C269.341 102.951 275.474 93.8842 276.408 75.0842C277.608 48.5509 268.141 35.3509 243.474 29.6176C236.141 27.8842 221.608 27.4842 158.674 27.2176C116.808 26.9509 73.6077 27.3509 62.541 27.8842Z" fill="black"/>
<path d="M1258.14 153.351C1255.21 163.484 1244.81 182.017 1236.94 191.351C1232.81 196.284 1225.21 203.617 1220.01 207.484C1210.14 215.084 1192.14 224.551 1184.94 226.017C1182.54 226.551 1180.67 227.351 1180.67 227.884C1180.67 228.417 1182.54 229.217 1184.94 229.751C1192.14 231.217 1210.14 240.684 1220.01 248.284C1236.54 260.951 1250.94 281.351 1257.87 301.617L1260.27 308.551L1262.67 301.217C1270.14 278.151 1287.07 256.151 1307.47 243.084C1316.54 237.217 1333.87 229.217 1337.47 229.217C1341.21 229.217 1339.21 227.084 1333.74 225.484C1304.01 216.284 1275.21 188.951 1264.67 160.017C1259.74 146.684 1260.01 146.951 1258.14 153.351Z" fill="black"/>
<path d="M1308.67 347.217C1254.94 351.217 1198.01 352.284 1088.27 351.351C1028.81 350.951 970.274 350.151 958.408 349.751L936.674 348.817V362.684C936.541 379.084 934.408 419.884 933.208 426.684L932.408 431.484L948.808 432.951C992.008 437.084 1013.61 437.751 1092.67 437.751C1186.27 437.751 1268.94 434.684 1339.87 428.551C1370.67 425.884 1378.81 423.351 1386.94 414.017C1392.94 407.217 1394.41 401.484 1393.74 386.684C1393.34 376.151 1392.54 372.684 1389.74 367.084C1385.61 359.084 1378.54 352.551 1370.14 348.817C1362.27 345.217 1341.61 344.684 1308.67 347.217Z" fill="black"/>
</svg>
