<svg width="2000" height="343" viewBox="0 0 2000 343" fill="none" xmlns="http://www.w3.org/2000/svg">
<g clip-path="url(#clip0_2759_4261)">
<path d="M457.615 69.3806C465.046 76.1193 468.897 85.0314 470.25 94.9419C470.771 105.987 469.886 116.749 468.462 127.687C468.265 129.258 468.068 130.83 467.871 132.401C465.636 149.978 463.012 167.503 460.381 185.022C453.514 223.24 453.514 223.24 462.169 259.765C466.599 264.99 470.005 267.021 476.829 267.603C482.842 267.49 487.22 265.078 491.416 260.799C495.596 255.901 498.594 251.029 501.214 245.114C501.796 243.811 501.796 243.811 502.391 242.481C516.752 209.384 520.001 170.831 522.631 135.046C524.045 115.815 527.316 99.1376 541.403 85.1257C551.216 76.8869 561.12 74.0378 573.734 74.5267C583.043 75.648 591.067 79.4015 597.252 86.7373C606.287 100.561 605.694 115.918 602.906 131.858C595.279 171.057 583.565 210.206 566.36 246.14C565.632 247.664 565.632 247.664 564.89 249.219C555.04 269.639 543.468 287.805 528.602 304.743C527.856 305.606 527.11 306.469 526.341 307.358C510.467 324.691 488.06 336.635 464.784 337.708C447.587 338.071 432.811 333.708 419.549 322.105C390.942 293.567 383.504 249.331 380.272 210.204C380.285 206.478 380.285 206.478 378.717 205.117C352.16 206.247 327.554 214.22 308.923 234.419C293.618 253.375 289.291 275.224 287.04 298.956C286.774 301.693 286.504 304.428 286.224 307.163C286.053 308.844 285.889 310.525 285.735 312.208C285.251 317.03 284.471 321.372 282.607 325.841C278.637 328.552 276.975 328.683 272.309 328.185C269.417 326.143 268.909 324.813 268.121 321.269C267.97 319.899 267.818 318.53 267.661 317.119C267.484 315.598 267.306 314.077 267.123 312.511C267.036 311.708 266.949 310.906 266.859 310.08C266.496 306.753 266.095 303.432 265.696 300.11C265.403 297.662 265.114 295.214 264.826 292.766C262.41 272.422 258.959 254.319 245.994 237.935C244.934 236.564 244.934 236.564 243.853 235.165C229.232 217.234 209.233 210.593 187.641 206.289C188.744 190.31 188.744 190.31 189.929 182.848C191.947 182.159 191.947 182.159 194.006 181.456C194.945 181.129 195.885 180.803 196.853 180.467C199.292 179.646 201.747 178.87 204.209 178.123C227.229 170.889 243.885 156.898 255.361 135.232C261.618 121.901 263.756 107.166 265.444 92.5977C268.852 91.9793 272.26 91.3701 275.67 90.7663C276.643 90.5888 277.616 90.4113 278.618 90.2284C279.543 90.066 280.469 89.9035 281.422 89.7362C282.279 89.5828 283.136 89.4293 284.019 89.2712C284.686 89.2086 285.352 89.146 286.039 89.0815C287.819 90.905 287.578 92.8584 287.845 95.3906C290.865 122.024 297.645 145.115 318.581 162.959C333.612 174.229 350.054 179.768 368.406 181.804C369.737 181.957 369.737 181.957 371.095 182.114C373.254 182.363 375.413 182.606 377.572 182.848C377.595 181.73 377.618 180.613 377.641 179.462C378.046 160.081 378.484 140.691 379.522 121.333C379.643 119.04 379.745 116.747 379.847 114.453C380.642 100.791 382.986 87.5508 392.447 77.3607C393.189 76.5539 393.93 75.7471 394.695 74.9159C411.416 58.2513 438.456 55.4509 457.615 69.3806Z" fill="black"/>
<path d="M945.808 35.0241C955.965 34.7774 965.585 35.3189 973.683 42.1984C976.974 45.4532 977.947 48.754 978.314 53.4202C977.983 70.9409 968.071 87.5521 960.749 102.867C946.95 130.678 946.95 130.678 941.575 161.091C943.03 164.684 944.705 166.094 948.118 167.752C959.619 172.17 970.732 172.65 982.908 172.738C984.917 172.763 984.917 172.763 986.967 172.788C998.339 172.726 1011.52 171.835 1021.08 164.799C1033.59 151.791 1031.75 121.156 1032.79 104.002C1035.35 62.682 1035.35 62.682 1047.16 51.5247C1055.74 45.3647 1064.62 44.6227 1074.8 46.4472C1087.06 49.5443 1096.51 58.0236 1103.07 68.7742C1112.23 84.6071 1116.31 99.4843 1112.4 117.793C1108.69 132.497 1102.53 144.568 1092.68 155.89C1091.96 156.722 1091.24 157.555 1090.5 158.412C1072.52 178.036 1048.52 182.578 1023.6 185.265C1021 185.547 1018.41 185.831 1015.82 186.125C1013.49 186.389 1011.15 186.642 1008.82 186.895C1004.53 187.543 1000.7 188.563 996.567 189.88C995.498 193.408 995.372 194.412 996.567 198.084C1001.64 200.361 1006.79 200.992 1012.26 201.518C1013.98 201.703 1015.71 201.887 1017.43 202.072C1020.1 202.35 1022.78 202.623 1025.45 202.889C1040.79 204.434 1056.13 206.621 1070.01 213.981C1070.76 214.375 1071.52 214.77 1072.29 215.176C1084.17 221.729 1097.05 233.345 1102.81 245.947C1103.07 249.929 1101.6 253.272 1100.19 256.908C1099.87 257.729 1099.56 258.55 1099.24 259.396C1092.94 275.665 1085.62 290.595 1075.51 304.743C1074.26 306.5 1074.26 306.5 1072.98 308.292C1062.58 322.026 1049.06 333.907 1032.04 337.561C1027.8 337.881 1023.56 337.886 1019.31 337.928C1018.17 337.962 1017.03 337.996 1015.86 338.031C1007.42 338.104 998.989 337.012 992.347 331.176C987.816 325.934 987.14 321.51 987.454 314.724C988.421 303.383 992.336 292.887 995.923 282.181C996.958 279.049 997.988 275.916 999.012 272.781C999.646 270.847 1000.29 268.914 1000.93 266.985C1004.94 254.864 1010.26 238.399 1004.58 226.214C1001.89 224.907 1001.89 224.907 998.855 223.87C998.057 223.497 997.259 223.124 996.437 222.739C975.655 213.324 950.157 212.524 928.788 220.088C924.769 221.947 922.752 224.279 921.123 228.339C917.879 241.697 920.159 256.199 921.866 269.655C927.976 318.407 927.976 318.407 917.968 331.989C911.074 338.866 902.739 341.162 893.306 341.517C876.122 340.92 861.944 335.21 849.448 323.121C821.588 291.493 819.889 246.542 821.51 206.289C824.539 156.67 842.253 105.957 875.285 69.1562C876.071 68.2542 876.857 67.3522 877.667 66.4229C895.195 47.258 920.425 36.2182 945.808 35.0241Z" fill="black"/>
<path d="M39.8304 -0.657472C41.1472 -0.655489 42.464 -0.653506 43.8207 -0.651463C61.7589 -0.289683 79.3251 3.31393 96.9369 6.55533C136.414 13.8147 170.258 12.8868 209.508 5.40157C226.586 2.1504 243.267 -0.513785 260.654 -0.584217C262.004 -0.591583 263.355 -0.598948 264.746 -0.606537C276.555 -0.426594 286.936 1.51043 295.869 9.91868C303.855 18.4397 304.865 28.4773 304.752 39.8841C304.371 51.6141 301.607 62.8289 293.151 71.1688C281.69 80.6917 267.773 81.356 253.575 80.6553C252.52 80.607 251.465 80.5587 250.379 80.509C229.426 79.386 208.524 77.06 187.642 75.0146C187.652 75.715 187.662 76.4153 187.672 77.1369C187.73 84.5678 187.381 91.8935 186.802 99.2986C186.668 101.063 186.668 101.063 186.532 102.863C186.241 106.669 185.942 110.474 185.64 114.279C185.537 115.585 185.434 116.89 185.328 118.235C172.957 274.176 172.957 274.176 133.866 316.462C132.654 317.84 132.654 317.84 131.417 319.246C120.376 331.268 108.373 337.486 92.2994 338.031C78.9841 338.21 69.1533 336.61 59.2097 326.896C50.772 317.5 47.2701 305.374 47.7278 292.654C50.3816 267.033 62.9739 248.894 77.8738 229.143C111.659 184.283 118.043 130.545 127.001 76.1867C126.164 76.2481 125.326 76.3094 124.462 76.3726C116.456 76.9562 108.448 77.5259 100.439 78.0813C96.325 78.3671 92.2109 78.6576 88.0976 78.9604C26.4851 83.4823 26.4851 83.4823 11.4408 70.3263C3.41381 62.7489 0.164954 54.1121 -0.438878 43.0344C-0.500698 40.7532 -0.545192 38.4715 -0.572959 36.1896C-0.594161 35.0995 -0.615363 34.0093 -0.637207 32.886C-0.558395 23.9649 1.40926 16.9714 6.87305 9.93699C7.67245 9.22083 8.47184 8.50468 9.29546 7.76682C10.0772 7.03253 10.8589 6.29825 11.6642 5.54171C20.3549 0.0612609 29.8344 -0.680015 39.8304 -0.657472Z" fill="black"/>
<path d="M1981.7 50.403C1989.35 56.8778 1994.6 63.5419 1995.85 73.8354C1996.15 81.5301 1995.46 86.4704 1990.85 92.5977C1984.81 98.6216 1978.44 99.9792 1970.18 100.07C1952.68 99.7888 1939.28 91.6149 1924.82 82.397C1919.17 79.118 1913.86 77.3072 1907.32 78.5328C1897.96 84.1756 1895.09 94.2224 1892.42 104.479C1886.37 125.998 1886.37 125.998 1887.87 147.685C1890.27 149.968 1891.72 151.132 1895.01 151.443C1902.23 150.569 1908.33 148.601 1914.98 145.634C1916.98 144.782 1918.98 143.934 1920.98 143.089C1922.45 142.466 1922.45 142.466 1923.94 141.832C1946.49 132.452 1946.49 132.452 1956.81 136.111C1962.58 140.139 1964.6 144.65 1965.96 151.495C1967.81 164.034 1968.35 180.178 1961.1 191.052C1956.51 195.777 1952.42 198.236 1945.87 198.451C1935.82 198.288 1926.55 194.713 1917.3 190.997C1916.24 190.573 1915.18 190.15 1914.1 189.713C1912.01 188.865 1909.93 188 1907.85 187.117C1900.92 184.271 1894.93 182.432 1887.55 184.89C1873.42 194.114 1867.49 211.664 1863.61 227.57C1860.6 242.578 1860.3 256.123 1868.62 269.274C1874.59 276.846 1883.21 280.915 1892.45 282.474C1904.63 283.555 1913.04 282.376 1923.2 275.588C1928.36 270.307 1929.46 264.746 1930.07 257.494C1931.23 246.635 1935.01 238.908 1942.88 231.498C1951.91 224.243 1961.35 223.894 1972.54 225.042C1981.85 226.971 1990.78 229.73 1996.92 237.473C2001.76 245.491 2001.25 255.71 1999.29 264.627C1992.1 285.455 1971.97 297.795 1953.71 307.18C1921.22 323.051 1880.96 327.171 1846.33 316.84C1820.98 307.551 1801.99 291.289 1789.75 266.706C1772.41 227.523 1774.94 180.033 1789.26 140.287C1797.21 119.272 1808.06 98.952 1822.66 82.0491C1823.63 80.8917 1824.61 79.7344 1825.62 78.542C1862.05 36.081 1933.58 12.4099 1981.7 50.403Z" fill="black"/>
<path d="M1556.55 51.429C1563.87 58.4114 1568.86 66.5067 1569.29 76.9171C1568.97 82.9305 1567.84 87.8735 1564.07 92.5936C1555.02 100.076 1545.56 100.596 1534.32 99.626C1522.76 97.5612 1513.17 91.6264 1503.2 85.6264C1492.57 79.1884 1492.57 79.1884 1480.55 78.5287C1477.29 79.235 1477.29 79.235 1474.83 80.8728C1473.63 83.004 1473.63 83.004 1472.54 85.5611C1471.91 86.8824 1471.91 86.8824 1471.27 88.2303C1464.12 104.463 1455.6 130.241 1461.1 147.828C1461.48 148.553 1461.85 149.278 1462.24 150.025C1468.96 151.242 1473.31 151.103 1479.91 148.853C1480.68 148.592 1481.45 148.331 1482.25 148.062C1489.11 145.687 1495.81 142.895 1502.46 139.96C1511.63 135.929 1520.17 132.73 1530.03 136.034C1535 139.621 1536.98 144.125 1538.9 150.025C1539.23 154.512 1539.22 159.006 1539.26 163.504C1539.29 164.722 1539.32 165.94 1539.36 167.194C1539.43 176.192 1538.54 185.949 1532.63 193.102C1527.19 197.944 1522.18 198.562 1515.26 198.479C1505.71 197.482 1496.55 193.656 1487.7 190.004C1486.8 189.631 1485.89 189.258 1484.96 188.873C1483.21 188.145 1481.47 187.4 1479.74 186.636C1474 184.21 1469.61 183.504 1463.39 184.015C1451.13 189.425 1445.28 201.079 1440.5 213.317C1435.25 229.038 1430.89 248.457 1438.39 264.129C1443.97 273.598 1452.07 279.134 1462.47 281.92C1474.11 283.914 1485.01 283.242 1495.21 276.976C1500.32 271.44 1502.4 266.107 1502.86 258.515C1503.55 247.454 1508.29 239.652 1516.02 232.071C1524.97 224.486 1533.45 224.22 1544.62 225.038C1556.12 226.854 1564 230.608 1570.94 240.275C1574.34 247.573 1574.32 255.457 1572.52 263.268C1564.81 285.13 1545.99 297.259 1526.53 306.941C1492.66 323.186 1451.03 328.123 1415.33 315.288C1403.81 310.661 1393.55 305.239 1384.44 296.535C1383.58 295.757 1382.71 294.978 1381.82 294.177C1360.52 273.93 1352.46 243.873 1351.12 214.95C1349.66 164.496 1365.69 114.902 1399.38 77.4298C1401.61 75.023 1403.88 72.6634 1406.18 70.3241C1407.2 69.2771 1408.22 68.2301 1409.28 67.1513C1446.47 30.8391 1513.36 17.1071 1556.55 51.429Z" fill="black"/>
<path d="M784.899 44.5384C785.942 44.9629 786.985 45.3875 788.059 45.8249C803.821 53.1194 814.895 65.8667 821.512 82.0448C825.48 93.6575 825.319 106.535 820.668 117.903C816.437 126.169 810.491 131.634 801.74 134.459C793.082 136.592 784.348 136.924 776.318 132.664C770.001 127.002 768.093 121.159 767.501 112.657C767.338 107.575 767.25 102.496 767.189 97.4122C767.017 90.2653 766.634 84.8015 763.16 78.5285C759.043 75.5516 754.713 75.8675 749.89 76.5827C739.269 79.5725 733.312 87.9351 728.022 97.1902C718.114 116.071 713.707 137.199 710.528 158.23C710.356 159.337 710.183 160.445 710.005 161.586C707.307 179.616 706.743 197.529 706.667 215.735C706.658 216.796 706.649 217.858 706.64 218.951C706.261 249.532 706.261 249.532 718.895 276.243C723.272 278.433 726.639 278.155 731.123 276.609C741.98 271.4 747.42 258.771 753.153 248.603C766.56 224.945 766.56 224.945 775.746 221.522C786.741 220.12 794.259 222.666 803.42 228.554C810.041 234.597 814.264 245.249 814.88 254.203C815.11 270.481 810.631 282.87 799.773 294.923C774.891 319.17 736.381 323.138 703.681 322.54C674.657 321.634 646.372 312.492 625.86 290.674C607.637 268.794 601.359 242.401 601.475 214.27C601.477 213.469 601.479 212.669 601.482 211.845C601.536 199.443 602.286 187.857 605.265 175.811C605.449 175 605.634 174.188 605.823 173.353C613.573 139.304 630.417 108.68 654.087 83.6632C655.383 82.2842 656.65 80.8762 657.91 79.4625C687.68 46.9163 743.281 27.496 784.899 44.5384Z" fill="black"/>
<path d="M1770.24 60.0678C1784.11 73.3804 1792.6 89.8002 1793.29 109.277C1793.47 119.778 1792.41 127.332 1785.75 135.667C1775.76 144.04 1765.87 147.815 1752.86 146.508C1742.14 144.864 1731.57 142.106 1724.35 133.281C1720.27 127.18 1718.53 122.403 1717.85 114.975C1717.07 106.51 1716.08 99.9643 1711.67 92.5929C1711.67 91.8193 1711.67 91.0457 1711.67 90.2487C1706.48 88.5722 1702.6 87.6013 1697.23 88.9301C1689.11 94.1637 1684.47 100.795 1682.21 110.247C1680.72 134.27 1696.72 157.552 1708.86 176.952C1730.32 211.31 1746.79 248.526 1738.18 290.339C1734.12 307.133 1724.4 321.416 1710.34 330.955C1694.9 340.049 1681.11 342.742 1663.54 342.684C1662.75 342.683 1661.96 342.682 1661.15 342.68C1637.67 342.566 1616.19 336.46 1598.4 319.975C1597.69 319.341 1596.98 318.706 1596.24 318.053C1585.6 307.95 1579.62 294.122 1578.67 279.37C1578.22 261.845 1580.53 244.266 1592.54 230.834C1599.03 224.553 1605.34 221.466 1614.27 221.008C1622.94 221.349 1630.03 224.322 1636.44 230.312C1647.3 242.492 1650.7 258.054 1651.53 274.118C1651.92 280.486 1652.85 285.572 1656.75 290.674C1662.74 295.56 1667.42 297.175 1675.06 296.534C1679.93 294.905 1683.4 292.724 1686.93 288.916C1691.66 278.467 1692.03 267.648 1688.79 256.683C1684.8 246.707 1679.75 237.835 1672.77 229.726C1671.85 228.659 1670.93 227.592 1669.99 226.493C1665.04 220.835 1659.94 215.381 1654.63 210.079C1629 184.408 1611.84 151.969 1610.77 114.643C1611.12 93.7213 1617.29 76.1982 1631.15 60.8003C1645.74 46.649 1665.64 39.6866 1685.35 37.5053C1686.46 37.3769 1687.58 37.2485 1688.72 37.1162C1718.72 34.1113 1746.86 39.685 1770.24 60.0678Z" fill="black"/>
<path d="M1329.88 52.6388C1337.43 59.7878 1341.1 66.8527 1341.61 77.431C1341.36 84.1606 1339.84 88.8885 1335.24 93.7668C1326.58 100.427 1317.02 100.543 1306.64 99.6272C1296.64 97.7727 1288.28 93.2221 1279.67 87.9522C1267.1 79.6366 1267.1 79.6366 1252.86 78.5298C1246.06 82.0262 1243.09 88.046 1240.5 95.0991C1232.38 120.381 1232.38 120.381 1233.19 146.249C1234.48 149.202 1234.48 149.202 1237.99 151.198C1246.09 151.619 1253.22 148.886 1260.51 145.631C1262.51 144.779 1264.51 143.931 1266.52 143.086C1267.98 142.463 1267.98 142.463 1269.48 141.829C1292.03 132.449 1292.03 132.449 1302.35 136.108C1308.14 140.155 1310.18 144.682 1311.57 151.565C1313.28 164.238 1313.55 179.897 1306.64 191.049C1303.11 195.106 1299.39 197.773 1293.99 198.32C1279.6 198.61 1267.36 193.258 1254.32 187.59C1246.75 184.399 1241.48 183.221 1233.3 184.346C1226.13 185.326 1219.62 184.823 1212.46 183.797C1211.29 183.633 1210.13 183.468 1208.93 183.299C1189.39 180.371 1173.03 172.731 1159.04 158.231C1157.7 156.894 1157.7 156.894 1156.33 155.53C1149.36 148.182 1143.96 139.848 1140.73 130.101C1140.84 123.708 1143.81 118.69 1146.81 113.253C1147.32 112.331 1147.83 111.409 1148.35 110.459C1167.17 77.049 1196.44 47.2658 1233.41 36.5033C1264.57 27.9591 1304.33 31.0228 1329.88 52.6388Z" fill="black"/>
<path d="M1216.25 205.111C1215.78 206.457 1215.31 207.803 1214.82 209.19C1209 226.224 1203.14 244.819 1210.24 262.469C1215.63 273.186 1222.91 277.717 1233.82 281.433C1243.61 283.865 1254.37 284.087 1263.39 279.103C1269.28 275.314 1272.84 271.961 1274.6 264.887C1274.75 262.862 1274.87 260.835 1274.96 258.807C1275.68 248.284 1280.76 238.379 1288.45 231.368C1297.39 224.579 1306.01 224.031 1316.93 225.036C1327.16 226.657 1336.09 229.516 1342.6 238.076C1346.89 246.146 1346.74 255.776 1344.83 264.644C1338.37 282.995 1320.97 296.313 1304.46 304.755C1268.88 321.852 1226.55 328.891 1188.64 315.606C1166.98 307.387 1147.36 292.524 1137.3 270.747C1136.68 266.521 1137.75 263.97 1139.59 260.198C1140.43 258.259 1140.43 258.259 1141.28 256.279C1145.06 247.813 1149.52 240.193 1155.61 233.241C1156.38 232.351 1157.16 231.461 1157.96 230.544C1173.21 214.004 1194.04 204.567 1216.25 205.111Z" fill="black"/>
<path d="M1123.57 123.068C1124.33 123.068 1125.08 123.068 1125.86 123.068C1126.25 124.245 1126.64 125.422 1127.04 126.634C1135.67 151.921 1150.83 173.219 1174.81 185.14C1181.25 188.211 1187.8 191.006 1194.51 193.392C1191.67 196.299 1189.21 196.993 1185.43 198.374C1159.91 208.25 1142.84 225.503 1131.02 250.398C1128.93 255.165 1127.29 259.877 1125.86 264.889C1125.11 264.889 1124.35 264.889 1123.57 264.889C1123.25 263.966 1122.93 263.043 1122.6 262.091C1112.74 234.63 1096.92 213.488 1070.57 200.96C1067.28 199.547 1063.98 198.205 1060.64 196.909C1058.74 196.13 1056.83 195.349 1054.92 194.564C1057.73 191.693 1060.05 191.066 1063.79 189.73C1089.6 179.684 1106.86 162.354 1118.75 136.913C1120.67 132.369 1122.18 127.81 1123.57 123.068Z" fill="black"/>
</g>
<defs>
<clipPath id="clip0_2759_4261">
<rect width="2000" height="342.246" fill="white"/>
</clipPath>
</defs>
</svg>
